<?xml version="1.0" encoding="UTF-8" standalone="no"?>
<!DOCTYPE svg PUBLIC "-//W3C//DTD SVG 1.1//EN" "http://www.w3.org/Graphics/SVG/1.1/DTD/svg11.dtd">
<svg width="100%" height="100%" viewBox="0 0 2000 2000" version="1.1" xmlns="http://www.w3.org/2000/svg" xmlns:xlink="http://www.w3.org/1999/xlink" xml:space="preserve" xmlns:serif="http://www.serif.com/" style="fill-rule:evenodd;clip-rule:evenodd;stroke-linejoin:round;stroke-miterlimit:2;">
    <rect id="Seite-1" serif:id="Seite 1" x="0" y="0" width="2000" height="2000" style="fill:none;"/>
    <clipPath id="_clip1">
        <rect id="Seite-11" serif:id="Seite 1" x="0" y="0" width="2000" height="2000"/>
    </clipPath>
    <g clip-path="url(#_clip1)">
        <g id="Layer-1" serif:id="Layer 1">
            <g transform="matrix(2.4189,0,0,2.4189,232.087,460.743)">
                <path d="M0,49.382L-22.876,36.474L-19.349,30.223L3.527,43.131L0,49.382ZM-18.152,37.737L-55.794,40.432L-51.704,33.184L-21.039,31.199L-22.877,34.457L-36.995,7.116L-32.98,0L-15.901,33.747L-18.152,37.737Z" style="fill:rgb(25,19,4);fill-rule:nonzero;"/>
            </g>
            <g transform="matrix(2.4189,0,0,2.4189,259.13,426.71)">
                <path d="M0,22.582L-4.977,18.783L11.933,-3.371L16.91,0.428L0,22.582ZM3.275,38.049L-25.69,-11.339L-22.54,-15.467L32.693,-0.492L27.968,5.699L-18.455,-7.354L-16.833,-9.478L7.908,31.979L3.275,38.049Z" style="fill:rgb(25,19,4);fill-rule:nonzero;"/>
            </g>
            <g transform="matrix(2.4189,0,0,2.4189,425.173,299.969)">
                <path d="M0,16.821L-6.954,12.571L-37.938,-20.237L-32.72,-25.165L3.664,13.361L0,16.821ZM0,16.821L-53.479,7.568L-59.366,-0.001L-5.884,9.145L0,16.821ZM-26.646,41.986L-63.03,3.46L-59.366,-0.001L-52.097,4.582L-21.428,37.057L-26.646,41.986Z" style="fill:rgb(25,19,4);fill-rule:nonzero;"/>
            </g>
            <g transform="matrix(2.4189,0,0,2.4189,541.87,191.718)">
                <path d="M0,26.36L-6.16,21.024L-31.324,-16.435L-25.366,-20.437L4.183,23.55L0,26.36ZM0,26.36L-51.228,8.434L-55.789,0L-4.541,17.82L0,26.36ZM-30.423,46.797L-59.972,2.81L-55.789,0L-49.374,5.716L-24.465,42.795L-30.423,46.797Z" style="fill:rgb(25,19,4);fill-rule:nonzero;"/>
            </g>
            <g transform="matrix(-1.09924,-2.15471,-2.15471,1.09924,615.397,120.135)">
                <rect x="-35.338" y="21.643" width="52.99" height="7.178" style="fill:rgb(25,19,4);"/>
            </g>
            <g transform="matrix(2.4189,0,0,2.4189,703.242,57.3696)">
                <path d="M0,51.272C-3.582,52.594 -7.144,53.163 -10.684,52.978C-14.225,52.794 -17.562,51.95 -20.693,50.447C-23.826,48.946 -26.585,46.872 -28.973,44.225C-31.361,41.581 -33.207,38.491 -34.512,34.957C-35.834,31.375 -36.448,27.804 -36.352,24.241C-36.256,20.679 -35.502,17.321 -34.088,14.167C-32.676,11.014 -30.695,8.222 -28.147,5.788C-25.601,3.355 -22.536,1.478 -18.954,0.155C-15.04,-1.291 -11.354,-1.891 -7.899,-1.647C-4.445,-1.403 -1.148,-0.559 1.99,0.887L-0.947,7.262C-3.175,6.078 -5.609,5.402 -8.247,5.236C-10.886,5.071 -13.662,5.526 -16.574,6.602C-19.201,7.572 -21.441,8.928 -23.293,10.669C-25.146,12.412 -26.567,14.442 -27.556,16.761C-28.545,19.08 -29.049,21.572 -29.068,24.238C-29.088,26.904 -28.586,29.622 -27.563,32.391C-26.541,35.161 -25.156,37.554 -23.409,39.566C-21.662,41.581 -19.659,43.147 -17.4,44.266C-15.143,45.386 -12.743,46.006 -10.202,46.126C-7.662,46.247 -5.079,45.821 -2.452,44.852C0.652,43.706 3.161,42.197 5.074,40.323C6.987,38.451 8.405,36.34 9.329,33.991L15.677,36.856C14.267,40.091 12.268,42.945 9.682,45.418C7.095,47.892 3.868,49.844 0,51.272" style="fill:rgb(25,19,4);fill-rule:nonzero;"/>
            </g>
            <g transform="matrix(-0.41389,-2.38323,-2.38323,0.41389,897.2,65.7221)">
                <rect x="-27.493" y="23.13" width="52.99" height="7.177" style="fill:rgb(25,19,4);"/>
            </g>
            <g transform="matrix(2.4189,0,0,2.4189,986.521,4.66365)">
                <path d="M0,51.254L-2.548,43.513L-4.922,-1.551L2.246,-1.928L5.033,50.989L0,51.254ZM0,51.254L-34.767,9.579L-34.354,0L0.485,41.595L0,51.254ZM-36.6,53.182L-39.387,0.265L-34.354,0L-31.782,8.198L-29.432,52.804L-36.6,53.182Z" style="fill:rgb(25,19,4);fill-rule:nonzero;"/>
            </g>
            <g transform="matrix(2.4189,0,0,2.4189,1075.76,4.55238)">
                <path d="M0,53.927C-4.156,53.541 -7.634,52.451 -10.432,50.657C-13.231,48.864 -15.636,46.416 -17.648,43.315L-12.33,38.902C-10.875,41.389 -9.112,43.329 -7.043,44.722C-4.976,46.116 -2.344,46.961 0.85,47.258C3.992,47.55 6.577,47.099 8.605,45.907C10.633,44.716 11.758,42.929 11.979,40.546C12.162,38.57 11.854,36.93 11.056,35.63C10.256,34.328 9.119,33.214 7.646,32.284C6.173,31.355 4.555,30.489 2.789,29.685C1.022,28.883 -0.738,28.029 -2.494,27.124C-4.251,26.22 -5.839,25.153 -7.258,23.921C-8.678,22.69 -9.774,21.145 -10.547,19.283C-11.32,17.422 -11.581,15.149 -11.331,12.462C-11.054,9.472 -10.095,6.992 -8.455,5.022C-6.815,3.054 -4.687,1.614 -2.072,0.707C0.542,-0.2 3.42,-0.508 6.563,-0.216C10.01,0.104 13.039,1.064 15.651,2.66C18.264,4.259 20.33,6.227 21.852,8.566L16.533,12.98C15.131,11.009 13.572,9.484 11.858,8.405C10.144,7.325 8.12,6.677 5.79,6.461C2.95,6.197 0.638,6.609 -1.149,7.695C-2.938,8.782 -3.936,10.44 -4.143,12.67C-4.308,14.444 -3.973,15.919 -3.135,17.095C-2.299,18.273 -1.155,19.312 0.295,20.213C1.744,21.115 3.364,21.969 5.156,22.774C6.947,23.58 8.72,24.447 10.474,25.376C12.229,26.306 13.812,27.425 15.224,28.732C16.636,30.039 17.724,31.661 18.49,33.598C19.256,35.536 19.51,37.898 19.251,40.685C18.817,45.349 16.869,48.849 13.406,51.185C9.942,53.522 5.475,54.435 0,53.927" style="fill:rgb(25,19,4);fill-rule:nonzero;"/>
            </g>
            <g transform="matrix(2.4189,0,0,2.4189,1193.52,144.814)">
                <path d="M0,-44.632L1.501,-51.025L30.714,-44.164L29.213,-37.771L0,-44.632ZM-5.133,-22.778L-3.701,-28.874L23.431,-22.502L21.999,-16.406L-5.133,-22.778ZM-10.614,0.562L-9.113,-5.83L20.472,1.118L18.971,7.51L-10.614,0.562ZM-15.371,-0.555L-3.256,-52.142L3.731,-50.501L-8.384,1.086L-15.371,-0.555Z" style="fill:rgb(25,19,4);fill-rule:nonzero;"/>
            </g>
            <g transform="matrix(2.4189,0,0,2.4189,1286.48,80.1216)">
                <path d="M0,40.932L2.37,34.808L28.86,45.059L26.49,51.183L0,40.932ZM-4.558,39.169L14.566,-10.251L21.26,-7.661L2.137,41.759L-4.558,39.169Z" style="fill:rgb(25,19,4);fill-rule:nonzero;"/>
            </g>
            <g transform="matrix(2.4189,0,0,2.4189,1382.72,170.844)">
                <path d="M0,19.459L26.921,-26.184L31.262,-23.624L31.861,19.547L28.902,17.801L66.974,-2.561L71.314,-0L44.394,45.643L38.212,41.997L58.731,7.205L59.946,8.453L29.908,24.511L25.567,21.951L25.089,-12.106L26.703,-11.686L6.183,23.105L0,19.459Z" style="fill:rgb(25,19,4);fill-rule:nonzero;"/>
            </g>
            <g transform="matrix(2.4189,0,0,2.4189,1555.41,320.566)">
                <path d="M0,-10.304L4.081,-15.052L25.215,3.117L21.133,7.865L0,-10.304ZM-15.632,-7.934L35.357,-33.979L39.294,-30.594L21.134,23.675L15.229,18.598L30.957,-26.987L32.983,-25.245L-9.842,-2.956L-15.632,-7.934Z" style="fill:rgb(25,19,4);fill-rule:nonzero;"/>
            </g>
            <g transform="matrix(2.4189,0,0,2.4189,1686.23,328.619)">
                <path d="M0,58.288L4.647,51.592L39.201,22.568L43.817,28.064L3.241,62.146L0,58.288ZM0,58.288L12.347,5.437L20.244,0L8.005,52.86L0,58.288ZM-23.572,30.224L17.003,-3.858L20.244,0L15.247,6.991L-18.956,35.72L-23.572,30.224Z" style="fill:rgb(25,19,4);fill-rule:nonzero;"/>
            </g>
            <g transform="matrix(2.4189,0,0,2.4189,1764.43,460.028)">
                <path d="M0,54.156L5.687,48.318L44.551,25.384L48.198,31.565L2.562,58.496L0,54.156ZM0,54.156L20.886,4.062L29.571,0L8.79,50.121L0,54.156ZM-18.627,22.592L27.01,-4.34L29.571,0L23.49,6.072L-14.979,28.773L-18.627,22.592Z" style="fill:rgb(25,19,4);fill-rule:nonzero;"/>
            </g>
            <g transform="matrix(2.4189,0,0,2.4189,81.7395,1365.29)">
                <path d="M0,18.431C-1.599,14.88 -2.314,11.556 -2.146,8.461C-1.978,5.365 -1.099,2.286 0.492,-0.773L6.521,1.512C5.172,3.837 4.408,6.16 4.229,8.481C4.049,10.8 4.575,13.325 5.803,16.052C7.012,18.737 8.566,20.627 10.466,21.725C12.367,22.823 14.333,22.913 16.369,21.996C18.058,21.236 19.247,20.232 19.935,18.985C20.623,17.738 21.004,16.302 21.082,14.68C21.158,13.056 21.116,11.344 20.956,9.541C20.794,7.74 20.677,5.917 20.604,4.076C20.529,2.235 20.665,0.454 21.011,-1.263C21.357,-2.981 22.107,-4.583 23.263,-6.066C24.417,-7.549 26.142,-8.807 28.437,-9.841C30.991,-10.991 33.445,-11.354 35.798,-10.929C38.15,-10.504 40.296,-9.439 42.236,-7.735C44.175,-6.03 45.749,-3.837 46.958,-1.151C48.283,1.793 48.898,4.693 48.805,7.547C48.709,10.403 48.063,12.985 46.864,15.295L40.836,13.01C41.79,10.966 42.311,8.999 42.398,7.113C42.485,5.224 42.081,3.284 41.184,1.292C40.092,-1.132 38.694,-2.82 36.99,-3.771C35.285,-4.722 33.48,-4.769 31.576,-3.912C30.06,-3.228 29.017,-2.278 28.447,-1.057C27.876,0.162 27.56,1.569 27.495,3.16C27.43,4.751 27.483,6.458 27.654,8.284C27.823,10.108 27.936,11.945 27.988,13.796C28.041,15.648 27.861,17.447 27.45,19.195C27.039,20.942 26.223,22.571 25.004,24.084C23.784,25.597 21.983,26.89 19.602,27.961C15.618,29.756 11.881,29.785 8.393,28.049C4.902,26.313 2.105,23.107 0,18.431" style="fill:rgb(25,19,4);fill-rule:nonzero;"/>
            </g>
            <g transform="matrix(2.4189,0,0,2.4189,163.759,1479.67)">
                <path d="M0,20.443C1.917,23.445 4.287,25.635 7.112,27.015C9.936,28.394 12.98,28.972 16.246,28.747C19.51,28.522 22.704,27.413 25.826,25.42C28.146,23.937 30.034,22.196 31.491,20.196C32.946,18.197 33.96,16.055 34.533,13.775C35.104,11.495 35.193,9.184 34.798,6.845C34.403,4.505 33.49,2.215 32.059,-0.026C30.167,-2.989 27.819,-5.165 25.016,-6.557C22.21,-7.95 19.192,-8.531 15.961,-8.297C12.729,-8.065 9.552,-6.953 6.43,-4.959C4.108,-3.477 2.193,-1.734 0.686,0.272C-0.823,2.277 -1.861,4.404 -2.424,6.652C-2.99,8.9 -3.078,11.211 -2.69,13.583C-2.303,15.955 -1.406,18.241 0,20.443M-5.327,24.012C-7.218,21.05 -8.431,17.937 -8.965,14.673C-9.5,11.409 -9.39,8.184 -8.636,4.998C-7.881,1.812 -6.542,-1.142 -4.617,-3.864C-2.693,-6.585 -0.25,-8.891 2.712,-10.783C5.714,-12.699 8.844,-13.952 12.103,-14.538C15.361,-15.126 18.578,-15.095 21.753,-14.447C24.927,-13.797 27.867,-12.548 30.571,-10.696C33.274,-8.844 35.571,-6.438 37.462,-3.476C39.353,-0.514 40.569,2.583 41.112,5.814C41.654,9.046 41.557,12.249 40.823,15.422C40.088,18.595 38.765,21.552 36.854,24.294C34.941,27.036 32.485,29.365 29.483,31.281C26.521,33.172 23.395,34.408 20.104,34.988C16.812,35.569 13.578,35.534 10.404,34.885C7.229,34.236 4.279,32.992 1.557,31.153C-1.167,29.314 -3.461,26.933 -5.327,24.012" style="fill:rgb(25,19,4);fill-rule:nonzero;"/>
            </g>
            <g transform="matrix(2.4189,0,0,2.4189,302.61,1629.74)">
                <path d="M0,-26.166L4.634,-30.172L22.289,-9.749L17.655,-5.743L0,-26.166ZM-16.327,-12.052L-11.693,-16.058L5.169,3.449L0.535,7.455L-16.327,-12.052ZM-35.744,-1.293L1.653,-33.621L6.032,-28.556L-31.365,3.772L-35.744,-1.293Z" style="fill:rgb(25,19,4);fill-rule:nonzero;"/>
            </g>
            <g transform="matrix(2.4189,0,0,2.4189,360.348,1736.69)">
                <path d="M0,-43.355L4.101,-47.907L33.999,-20.967L29.898,-16.417L0,-43.355ZM-16.5,0.071L15.635,-35.596L20.61,-31.114L-11.526,4.552L-16.5,0.071Z" style="fill:rgb(25,19,4);fill-rule:nonzero;"/>
            </g>
            <g transform="matrix(2.4189,0,0,2.4189,421.679,1740.52)">
                <path d="M0,32.484L13.139,-17.839L18.771,-14.217L7.747,26.627L6.13,25.587L38.541,-1.503L42.614,1.117L31.412,41.845L29.854,40.843L62.444,13.87L68.016,17.453L27.738,50.323L23.724,47.742L34.829,7.035L36.386,8.037L4.014,35.066L0,32.484Z" style="fill:rgb(25,19,4);fill-rule:nonzero;"/>
            </g>
            <g transform="matrix(2.4189,0,0,2.4189,577.121,1863.05)">
                <path d="M0,6.281L2.34,0.929L26.161,11.344L23.821,16.696L0,6.281ZM-13.291,12.675L25.048,-24.514L29.486,-22.573L28.151,30.795L21.494,27.885L23.039,-17.074L25.323,-16.075L-6.765,15.528L-13.291,12.675Z" style="fill:rgb(25,19,4);fill-rule:nonzero;"/>
            </g>
            <g transform="matrix(2.4189,0,0,2.4189,755.04,1842.12)">
                <path d="M0,52.982L-11.377,26.839L-4.679,26.406L8.168,55.248L0,52.982ZM-17.383,25.839L-15.879,20.417L-2.976,23.995C-0.185,24.769 2.163,24.657 4.066,23.657C5.97,22.658 7.258,20.945 7.931,18.519C8.565,16.231 8.347,14.126 7.28,12.204C6.211,10.281 4.281,8.932 1.49,8.159L-11.483,4.561L-9.922,-1.067L3.257,2.587C6.277,3.424 8.746,4.738 10.665,6.527C12.583,8.315 13.869,10.384 14.524,12.734C15.177,15.085 15.144,17.562 14.42,20.17C13.672,22.872 12.411,25.059 10.641,26.736C8.87,28.414 6.708,29.502 4.155,30.001C1.602,30.501 -1.185,30.332 -4.205,29.494L-17.383,25.839ZM-27.456,45.369L-14.246,-2.266L-7.794,-0.477L-21.003,47.158L-27.456,45.369Z" style="fill:rgb(25,19,4);fill-rule:nonzero;"/>
            </g>
            <g transform="matrix(2.4189,0,0,2.4189,843.21,1978.75)">
                <path d="M0,-40.142L0.856,-46.207L28.574,-42.295L27.718,-36.23L0,-40.142ZM-2.927,-19.407L-2.111,-25.19L23.633,-21.556L22.816,-15.773L-2.927,-19.407ZM-6.053,2.74L-5.197,-3.326L22.874,0.636L22.018,6.702L-6.053,2.74ZM-10.567,2.103L-3.658,-46.844L2.972,-45.909L-3.937,3.039L-10.567,2.103Z" style="fill:rgb(25,19,4);fill-rule:nonzero;"/>
            </g>
            <g transform="matrix(2.4189,0,0,2.4189,1013.98,1878.2)">
                <path d="M0,50.1L-0.35,43.984L13.375,43.199C17.024,42.99 20.18,42.013 22.839,40.267C25.496,38.522 27.517,36.206 28.898,33.321C30.277,30.436 30.864,27.168 30.655,23.517C30.449,19.914 29.483,16.759 27.759,14.051C26.034,11.344 23.752,9.287 20.913,7.879C18.074,6.472 14.853,5.871 11.25,6.078L-2.403,6.86L-2.754,0.744L11.042,-0.046C14.645,-0.252 18.011,0.174 21.14,1.231C24.268,2.289 27.022,3.868 29.401,5.966C31.78,8.067 33.684,10.573 35.111,13.488C36.538,16.403 37.354,19.638 37.558,23.194C37.758,26.703 37.315,29.997 36.232,33.079C35.148,36.162 33.556,38.881 31.455,41.237C29.355,43.593 26.811,45.474 23.823,46.881C20.836,48.289 17.564,49.094 14.009,49.298L0,50.1ZM-4.409,50.352L-7.233,1L-0.549,0.618L2.275,49.969L-4.409,50.352Z" style="fill:rgb(25,19,4);fill-rule:nonzero;"/>
            </g>
            <g transform="matrix(2.4189,0,0,2.4189,1168.7,1855.65)">
                <path d="M0,53.096L-1.214,47.092L26.573,41.475L27.787,47.48L0,53.096ZM-4.432,31.174L-5.589,25.449L19.895,20.298L21.052,26.023L-4.432,31.174ZM-8.58,10.648L-9.794,4.643L17.645,-0.903L18.857,5.102L-8.58,10.648ZM-4.469,53.999L-14.262,5.546L-7.699,4.22L2.095,52.673L-4.469,53.999Z" style="fill:rgb(25,19,4);fill-rule:nonzero;"/>
            </g>
            <g transform="matrix(2.4189,0,0,2.4189,1318.18,1812.71)">
                <path d="M0,54.838L-34.972,14.68L-28.111,12.288L1.056,46.399L-1.434,47.267L0.339,2.369L7.132,0L4.573,53.243L0,54.838Z" style="fill:rgb(25,19,4);fill-rule:nonzero;"/>
            </g>
            <g transform="matrix(2.4189,0,0,2.4189,1427.33,1768.72)">
                <path d="M0,54.68L-2.795,49.23L22.429,36.291L25.225,41.742L0,54.68ZM-10.207,34.78L-12.873,29.582L10.26,17.717L12.926,22.913L-10.207,34.78ZM-19.765,16.146L-22.561,10.696L2.348,-2.08L5.144,3.37L-19.765,16.146ZM-4.056,56.76L-26.616,12.776L-20.659,9.72L1.901,53.704L-4.056,56.76Z" style="fill:rgb(25,19,4);fill-rule:nonzero;"/>
            </g>
            <g transform="matrix(2.4189,0,0,2.4189,1538.89,1742.69)">
                <path d="M0,39.462L-3.453,34.403L18.432,19.465L21.886,24.524L0,39.462ZM-3.765,42.032L-31.634,1.204L-26.104,-2.57L1.766,38.258L-3.765,42.032Z" style="fill:rgb(25,19,4);fill-rule:nonzero;"/>
            </g>
            <g transform="matrix(2.4189,0,0,2.4189,1652.31,1664.85)">
                <path d="M0,28.425C2.651,26.047 4.429,23.353 5.333,20.342C6.235,17.331 6.312,14.234 5.561,11.048C4.809,7.863 3.196,4.892 0.724,2.134C-1.115,0.084 -3.14,-1.496 -5.349,-2.609C-7.559,-3.721 -9.835,-4.375 -12.178,-4.569C-14.521,-4.763 -16.815,-4.476 -19.06,-3.708C-21.305,-2.938 -23.416,-1.666 -25.396,0.11C-28.012,2.456 -29.779,5.126 -30.698,8.118C-31.618,11.113 -31.701,14.185 -30.947,17.335C-30.194,20.488 -28.581,23.442 -26.107,26.198C-24.269,28.249 -22.238,29.857 -20.015,31.019C-17.791,32.183 -15.524,32.862 -13.215,33.053C-10.904,33.246 -8.61,32.959 -6.333,32.192C-4.055,31.425 -1.944,30.169 0,28.425M4.387,33.103C1.771,35.449 -1.105,37.151 -4.239,38.207C-7.373,39.265 -10.573,39.679 -13.84,39.45C-17.106,39.223 -20.238,38.381 -23.235,36.922C-26.233,35.465 -28.904,33.428 -31.251,30.812C-33.629,28.16 -35.373,25.275 -36.48,22.154C-37.589,19.034 -38.08,15.856 -37.954,12.616C-37.829,9.379 -37.072,6.276 -35.683,3.308C-34.295,0.34 -32.292,-2.316 -29.676,-4.663C-27.061,-7.01 -24.202,-8.712 -21.101,-9.77C-18,-10.829 -14.824,-11.254 -11.574,-11.044C-8.323,-10.833 -5.19,-10.007 -2.176,-8.565C0.841,-7.123 3.536,-5.077 5.914,-2.426C8.261,0.191 9.987,3.075 11.094,6.229C12.2,9.383 12.69,12.58 12.564,15.817C12.438,19.056 11.689,22.167 10.316,25.153C8.943,28.138 6.967,30.788 4.387,33.103" style="fill:rgb(25,19,4);fill-rule:nonzero;"/>
            </g>
            <g transform="matrix(2.4189,0,0,2.4189,1711.43,1577.75)">
                <path d="M0,20.746L-4.499,17.02L4.089,6.652C5.27,5.226 6.029,3.714 6.369,2.113C6.708,0.514 6.612,-1.045 6.081,-2.565C5.551,-4.082 4.554,-5.447 3.091,-6.659C1.629,-7.871 0.102,-8.595 -1.489,-8.835C-3.08,-9.072 -4.63,-8.876 -6.139,-8.246C-7.647,-7.614 -8.992,-6.587 -10.174,-5.16L-18.761,5.207L-23.26,1.481L-14.399,-9.215C-12.462,-11.556 -10.251,-13.255 -7.771,-14.316C-5.29,-15.373 -2.734,-15.724 -0.104,-15.364C2.526,-15.003 5.03,-13.84 7.407,-11.871C9.748,-9.932 11.34,-7.703 12.184,-5.187C13.027,-2.668 13.169,-0.084 12.608,2.564C12.048,5.214 10.798,7.709 8.859,10.049L0,20.746ZM11.948,36.47L-26.122,4.937L-21.851,-0.219L16.22,31.313L11.948,36.47Z" style="fill:rgb(25,19,4);fill-rule:nonzero;"/>
            </g>
            <g transform="matrix(2.4189,0,0,2.4189,1826.21,1442.77)">
                <path d="M0,46.222L-5.178,42.949L9.97,18.986L15.147,22.259L0,46.222ZM-18.905,34.271L-23.843,31.15L-9.951,9.174L-5.014,12.295L-18.905,34.271ZM-36.606,23.081L-41.784,19.809L-26.827,-3.853L-21.649,-0.58L-36.606,23.081ZM-2.436,50.075L-44.221,23.661L-40.643,18.002L1.142,44.415L-2.436,50.075Z" style="fill:rgb(25,19,4);fill-rule:nonzero;"/>
            </g>
            <g transform="matrix(2.4189,0,0,2.4189,1914.94,1402.46)">
                <path d="M0,-4.838L-27.627,2.21L-26.983,-4.473L3.543,-12.538L0,-4.838ZM-29.575,7.977L-34.687,5.626L-29.09,-6.539C-27.88,-9.17 -27.614,-11.506 -28.297,-13.545C-28.979,-15.583 -30.463,-17.129 -32.75,-18.181C-34.907,-19.173 -37.021,-19.295 -39.089,-18.549C-41.157,-17.802 -42.798,-16.112 -44.008,-13.482L-49.635,-1.251L-54.94,-3.692L-49.225,-16.116C-47.915,-18.964 -46.224,-21.191 -44.15,-22.799C-42.078,-24.406 -39.83,-25.345 -37.406,-25.615C-34.981,-25.884 -32.54,-25.454 -30.081,-24.323C-27.535,-23.151 -25.577,-21.558 -24.205,-19.542C-22.833,-17.525 -22.104,-15.217 -22.021,-12.617C-21.936,-10.017 -22.549,-7.293 -23.858,-4.446L-29.575,7.977ZM-11.908,21.046L-56.816,0.384L-54.018,-5.698L-9.11,14.963L-11.908,21.046Z" style="fill:rgb(25,19,4);fill-rule:nonzero;"/>
            </g>
            <g transform="matrix(2.4189,0,0,2.4189,1599.43,541.051)">
                <path d="M0,379.314C-1.418,381.196 -2.876,383.071 -4.357,384.921C-10.485,392.618 -16.973,400.019 -23.797,407.108C-25.607,408.998 -27.458,410.873 -29.324,412.715C-37.174,420.492 -45.432,427.845 -54.066,434.75C-56.437,436.656 -58.848,438.531 -61.283,440.357C-71.976,448.431 -83.206,455.832 -94.9,462.504C-98.217,464.394 -101.573,466.229 -104.969,467.999C-148.358,490.691 -197.675,503.53 -249.931,503.53C-302.187,503.53 -351.503,490.691 -394.893,467.999C-398.289,466.229 -401.645,464.394 -404.961,462.504C-416.655,455.832 -427.885,448.431 -438.578,440.357C-441.013,438.531 -443.424,436.656 -445.795,434.75C-454.43,427.845 -462.688,420.492 -470.537,412.715C-472.404,410.873 -474.254,408.998 -476.064,407.108C-482.889,400.019 -489.377,392.618 -495.504,384.921C-496.986,383.071 -498.444,381.196 -499.861,379.314C-539.975,326.593 -563.804,260.857 -563.804,189.657C-563.804,16.589 -422.999,-124.216 -249.931,-124.216C-76.862,-124.216 63.942,16.589 63.942,189.657C63.942,260.857 40.113,326.593 0,379.314M44.438,65.305C28.347,27.258 5.31,-6.904 -24.03,-36.244C-53.362,-65.584 -87.531,-88.62 -125.578,-104.712C-164.962,-121.372 -206.806,-129.823 -249.931,-129.823C-293.056,-129.823 -334.899,-121.372 -374.283,-104.712C-412.33,-88.62 -446.5,-65.584 -475.832,-36.244C-505.172,-6.904 -528.208,27.258 -544.3,65.305C-560.96,104.689 -569.411,146.532 -569.411,189.657C-569.411,232.782 -560.96,274.625 -544.3,314.01C-528.208,352.056 -505.172,386.226 -475.832,415.558C-446.5,444.898 -412.33,467.935 -374.283,484.026C-334.899,500.687 -293.056,509.137 -249.931,509.137C-206.806,509.137 -164.962,500.687 -125.578,484.026C-87.531,467.935 -53.362,444.898 -24.03,415.558C-23.084,414.613 -22.147,413.668 -21.218,412.715C-21.138,412.635 -21.058,412.547 -20.986,412.467C6.912,383.831 28.907,350.727 44.438,314.01C61.099,274.625 69.549,232.782 69.549,189.657C69.549,146.532 61.099,104.689 44.438,65.305" style="fill:rgb(25,19,4);fill-rule:nonzero;"/>
            </g>
            <g transform="matrix(-2.26985,0.835988,0.835988,2.26985,533.7,1119.53)">
                <path d="M-8.241,22.199L-2.633,22.199C-2.637,14.1 -3.158,5.918 -4.196,-2.115L-9.754,-1.4C-8.751,6.4 -8.243,14.339 -8.241,22.199" style="fill:rgb(25,19,4);fill-rule:nonzero;"/>
            </g>
            <g transform="matrix(-2.18282,-1.0423,-1.0423,2.18282,525.199,925.762)">
                <path d="M-5.459,-22.79C-6.754,-15.039 -8.556,-7.289 -10.83,0.243L-5.459,1.858C-3.12,-5.901 -1.26,-13.888 0.065,-21.866L-5.459,-22.79Z" style="fill:rgb(25,19,4);fill-rule:nonzero;"/>
            </g>
            <g transform="matrix(2.4189,0,0,2.4189,545.466,995.533)">
                <path d="M0,23.236L-5.575,23.789C-6.2,17.493 -6.512,11.085 -6.512,4.733C-6.512,2.979 -6.488,1.201 -6.44,-0.553L-0.833,-0.401C-0.881,1.297 -0.905,3.027 -0.905,4.733C-0.905,10.901 -0.601,17.132 0,23.236" style="fill:rgb(25,19,4);fill-rule:nonzero;"/>
            </g>
            <g transform="matrix(-0.86167,-2.26023,-2.26023,0.86167,719.644,604.798)">
                <path d="M-11.701,-16.44C-12.992,-8.696 -14.802,-0.943 -17.066,6.59L-11.701,8.205C-9.362,0.446 -7.502,-7.54 -6.17,-15.513L-11.701,-16.44Z" style="fill:rgb(25,19,4);fill-rule:nonzero;"/>
            </g>
            <g transform="matrix(-2.41295,0.16961,0.16961,2.41295,1435.68,916.947)">
                <path d="M-7.912,24.027L-2.307,24.027C-2.299,16.149 -1.788,8.211 -0.794,0.426L-6.352,-0.284C-7.379,7.729 -7.904,15.908 -7.912,24.027" style="fill:rgb(25,19,4);fill-rule:nonzero;"/>
            </g>
            <g transform="matrix(-2.29169,0.774109,0.774109,2.29169,1394.06,814.906)">
                <path d="M-10.587,22.486L-4.981,22.486C-4.987,14.634 -4.483,6.694 -3.485,-1.117L-9.051,-1.824C-10.072,6.214 -10.596,14.399 -10.587,22.486" style="fill:rgb(25,19,4);fill-rule:nonzero;"/>
            </g>
            <g transform="matrix(-1.6293,1.78787,1.78787,1.6293,1253.09,660.436)">
                <path d="M-14.509,17.494L-8.896,17.494C-8.898,9.625 -8.394,1.675 -7.406,-6.116L-12.962,-6.822C-13.983,1.208 -14.5,9.385 -14.509,17.494" style="fill:rgb(25,19,4);fill-rule:nonzero;"/>
            </g>
            <g transform="matrix(-1.84847,-1.56022,-1.56022,1.84847,558.081,803.302)">
                <path d="M-8.161,-21.19C-9.453,-13.424 -11.26,-5.672 -13.533,1.853L-8.161,3.474C-5.827,-4.284 -3.962,-12.268 -2.626,-20.271L-8.161,-21.19Z" style="fill:rgb(25,19,4);fill-rule:nonzero;"/>
            </g>
            <g transform="matrix(-2.06764,-1.25537,-1.25537,2.06764,1402.89,1164.44)">
                <path d="M-6.224,-23.503C-8.562,-15.749 -10.421,-7.761 -11.755,0.237L-6.224,1.16C-4.932,-6.602 -3.126,-14.36 -0.86,-21.887L-6.224,-23.503Z" style="fill:rgb(25,19,4);fill-rule:nonzero;"/>
            </g>
            <g transform="matrix(-2.31669,-0.695742,-0.695742,2.31669,1434.79,1062.06)">
                <path d="M-3.444,-24.808C-5.78,-17.029 -7.641,-9.049 -8.976,-1.095L-3.444,-0.162C-2.15,-7.894 -0.344,-15.639 1.926,-23.195L-3.444,-24.808Z" style="fill:rgb(25,19,4);fill-rule:nonzero;"/>
            </g>
            <g transform="matrix(-1.68468,-1.73579,-1.73579,1.68468,1349.83,1254.03)">
                <path d="M-8.635,-21.417C-10.965,-13.663 -12.829,-5.682 -14.166,2.313L-8.635,3.24C-7.335,-4.529 -5.525,-12.279 -3.26,-19.802L-8.635,-21.417Z" style="fill:rgb(25,19,4);fill-rule:nonzero;"/>
            </g>
            <g transform="matrix(-1.98573,1.3813,1.3813,1.98573,574.051,1238.66)">
                <path d="M-10.802,20.417L-5.192,20.417C-5.199,12.314 -5.728,4.134 -6.75,-3.888L-12.316,-3.177C-11.314,4.615 -10.812,12.549 -10.802,20.417" style="fill:rgb(25,19,4);fill-rule:nonzero;"/>
            </g>
            <g transform="matrix(-1.39884,-1.97341,-1.97341,1.39884,624.51,693.118)">
                <path d="M-10.275,-19.032C-11.569,-11.272 -13.378,-3.52 -15.643,4.006L-10.275,5.621C-7.938,-2.133 -6.077,-10.118 -4.739,-18.106L-10.275,-19.032Z" style="fill:rgb(25,19,4);fill-rule:nonzero;"/>
            </g>
            <g transform="matrix(-2.0232,1.32581,1.32581,2.0232,1331.51,728.55)">
                <path d="M-12.83,20.241L-7.218,20.241C-7.225,12.384 -6.722,4.441 -5.734,-3.36L-11.298,-4.062C-12.317,3.97 -12.828,12.148 -12.83,20.241" style="fill:rgb(25,19,4);fill-rule:nonzero;"/>
            </g>
            <g transform="matrix(-2.4189,0,0,2.4189,3408.65,-488.19)">
                <rect x="746.379" y="804.813" width="503.001" height="5.607" style="fill:rgb(25,19,4);"/>
            </g>
            <g transform="matrix(-2.4189,0,0,2.4189,2470.2,-353.718)">
                <rect x="770.357" y="777.017" width="67.082" height="5.607" style="fill:rgb(25,19,4);"/>
            </g>
            <g transform="matrix(-2.4189,0,0,2.4189,3625.21,-220.001)">
                <rect x="994.273" y="749.377" width="96.745" height="5.607" style="fill:rgb(25,19,4);"/>
            </g>
            <g transform="matrix(-2.4189,0,0,2.4189,3943.54,-86.2743)">
                <rect x="1063.98" y="721.735" width="88.932" height="5.607" style="fill:rgb(25,19,4);"/>
            </g>
            <g transform="matrix(-2.4189,0,0,2.4189,3410.1,-86.2743)">
                <rect x="949.807" y="721.735" width="96.745" height="5.607" style="fill:rgb(25,19,4);"/>
            </g>
            <g transform="matrix(-2.4189,0,0,2.4189,2892.64,-86.2743)">
                <rect x="842.847" y="721.735" width="96.745" height="5.607" style="fill:rgb(25,19,4);"/>
            </g>
            <g transform="matrix(-2.4189,0,0,2.4189,3859.76,-353.718)">
                <rect x="1057.59" y="777.017" width="67.083" height="5.607" style="fill:rgb(25,19,4);"/>
            </g>
            <g transform="matrix(-2.4189,0,0,2.4189,4196.98,-220.001)">
                <rect x="1127.29" y="749.377" width="67.082" height="5.607" style="fill:rgb(25,19,4);"/>
            </g>
            <g transform="matrix(-2.4189,0,0,2.4189,4353.96,-353.718)">
                <rect x="1159.74" y="777.017" width="67.082" height="5.607" style="fill:rgb(25,19,4);"/>
            </g>
            <g transform="matrix(-2.4189,0,0,2.4189,3148.99,-353.718)">
                <rect x="861.693" y="777.017" width="165.029" height="5.607" style="fill:rgb(25,19,4);"/>
            </g>
            <g transform="matrix(-2.4189,0,0,2.4189,2852.48,-220.001)">
                <rect x="800.402" y="749.377" width="165.029" height="5.607" style="fill:rgb(25,19,4);"/>
            </g>
            <g transform="matrix(2.4189,0,0,2.4189,1166.61,562.732)">
                <path d="M0,120.324L-54.347,77.279C-60.082,72.73 -67.282,70.223 -74.604,70.223C-81.924,70.223 -89.125,72.73 -94.868,77.279L-149.207,120.324C-149.327,115.262 -148.791,106.908 -145.146,98.041C-138.81,82.622 -125.954,71.576 -106.819,65.072L-92.281,61.244L-93.547,55.781C-98.825,56.83 -103.655,58.12 -108.061,59.602L-168.791,75.621C-166.733,71.448 -162.952,65.248 -156.592,59.353C-141.87,45.704 -121.197,40.434 -95.149,43.686L-83.743,45.112L-152.034,-1.898C-145.811,-2.867 -135.654,-3.788 -124.705,-2.066C-101.236,1.618 -85.273,15.139 -77.255,38.127L-74.604,45.72L-71.96,38.127C-63.934,15.139 -47.971,1.618 -24.51,-2.066C-13.553,-3.788 -3.404,-2.867 2.827,-1.898L-65.464,45.112L-54.058,43.686C-28.146,40.45 -7.545,45.656 7.177,59.153C13.625,65.072 17.477,71.384 19.568,75.613L-41.146,59.602C-45.552,58.12 -50.382,56.83 -55.668,55.781L-56.926,61.244L-42.388,65.072C-23.26,71.576 -10.397,82.622 -4.061,98.041C-0.417,106.908 0.112,115.262 0,120.324M-17.974,71.512L28.427,83.751L27.017,78.977C26.865,78.465 23.197,66.37 11.198,55.244C1.378,46.137 -15.923,36.189 -44.158,37.254L16.436,-4.461L10.621,-6.047C9.94,-6.239 -6.224,-10.565 -25.191,-7.641C-41.587,-5.102 -62.861,3.517 -74.604,29.621C-86.354,3.517 -107.628,-5.102 -124.024,-7.641C-142.983,-10.565 -159.147,-6.239 -159.828,-6.047L-165.643,-4.461L-105.057,37.254C-133.284,36.189 -150.585,46.137 -160.405,55.244C-172.411,66.37 -176.08,78.465 -176.232,78.977L-177.634,83.751L-131.233,71.512C-141.566,79.33 -147.285,88.373 -150.441,96.174C-156.792,111.866 -154.437,125.691 -154.333,126.275L-153.508,130.889L-91.384,81.669C-89.87,80.475 -88.244,79.45 -86.53,78.609C-84.824,77.776 -83.038,77.119 -81.204,76.654C-79.057,76.11 -76.83,75.829 -74.604,75.829C-72.521,75.829 -70.438,76.078 -68.42,76.558C-66.586,76.983 -64.791,77.608 -63.085,78.417C-61.219,79.29 -59.449,80.379 -57.823,81.669L4.301,130.889L5.126,126.275C5.23,125.691 7.585,111.866 1.234,96.174C-1.93,88.373 -7.641,79.33 -17.974,71.512" style="fill:rgb(25,19,4);fill-rule:nonzero;"/>
            </g>
            <g transform="matrix(2.4189,0,0,2.4189,1019.07,741.507)">
                <path d="M0,58.127L-27.658,58.127L-26.697,54.595C-20.954,33.377 -23.701,13.608 -25.535,4.701C-25.808,3.388 -26.056,2.306 -26.256,1.497L-20.81,0.144C-20.641,0.833 -20.433,1.706 -20.209,2.747C-18.391,11.253 -15.395,30.902 -20.401,52.52L-7.265,52.52C-12.279,30.861 -9.267,11.197 -7.425,2.651C-7.193,1.586 -6.985,0.696 -6.808,0L-1.37,1.361C-1.57,2.162 -1.818,3.22 -2.091,4.509C-3.941,13.392 -6.744,33.248 -0.961,54.595L0,58.127Z" style="fill:rgb(25,19,4);fill-rule:nonzero;"/>
            </g>
            <g transform="matrix(2.4189,0,0,2.4189,1019.05,873.393)">
                <path d="M0,59.809L-27.65,59.809L-26.689,56.269C-20.233,32.423 -24.558,10.236 -26.152,3.604C-26.456,2.338 -26.657,1.642 -26.673,1.602L-21.298,0C-21.226,0.224 -20.858,1.489 -20.377,3.604C-18.567,11.59 -15.171,31.719 -20.385,54.202L-7.257,54.202C-12.471,31.719 -9.075,11.59 -7.265,3.604C-6.784,1.489 -6.416,0.224 -6.344,0L-0.977,1.602C-0.985,1.642 -1.193,2.338 -1.498,3.604C-3.076,10.252 -7.393,32.488 -0.953,56.269L0,59.809Z" style="fill:rgb(25,19,4);fill-rule:nonzero;"/>
            </g>
            <g transform="matrix(2.4189,0,0,2.4189,1015.45,1133.27)">
                <path d="M0,-47.627C-1.474,-41.435 -5.335,-21.683 -0.617,0.232C-0.473,0.921 -0.32,1.609 -0.152,2.298L-5.607,3.604C-5.895,2.402 -6.152,1.209 -6.392,0.023C-10.677,-21.259 -7.497,-39.994 -5.775,-47.627C-5.286,-49.75 -4.918,-51.015 -4.854,-51.231L0.513,-49.629C0.505,-49.589 0.304,-48.893 0,-47.627" style="fill:rgb(25,19,4);fill-rule:nonzero;"/>
            </g>
            <g transform="matrix(2.4189,0,0,2.4189,971.096,1018.51)">
                <path d="M0,47.802C-0.256,49.052 -0.537,50.317 -0.849,51.591L-6.296,50.253C-6.135,49.612 -5.991,48.979 -5.847,48.339C-0.913,26.16 -4.83,6.071 -6.328,-0.185C-6.632,-1.45 -6.832,-2.147 -6.848,-2.187L-1.474,-3.789C-1.41,-3.573 -1.041,-2.307 -0.553,-0.185C1.185,7.481 4.389,26.376 0,47.802" style="fill:rgb(25,19,4);fill-rule:nonzero;"/>
            </g>
            <g transform="matrix(2.4189,0,0,2.4189,1326.94,1133.29)">
                <path d="M0,137.28L-5.607,137.28C-5.607,136.343 -5.615,135.406 -5.639,134.477C-7.137,63.165 -65.609,5.606 -137.28,5.606C-166.364,5.606 -193.277,15.09 -215.088,31.126C-217.523,32.912 -219.894,34.778 -222.201,36.733C-227.167,40.93 -231.82,45.495 -236.114,50.381C-237.724,52.208 -239.286,54.074 -240.783,55.988C-244.204,60.33 -247.352,64.887 -250.211,69.637C-251.316,71.479 -252.374,73.346 -253.391,75.244C-255.754,79.649 -257.876,84.207 -259.735,88.893C-260.472,90.743 -261.16,92.609 -261.809,94.499C-263.347,98.945 -264.645,103.503 -265.694,108.148C-266.119,110.007 -266.503,111.873 -266.839,113.755C-268.065,120.499 -268.77,127.42 -268.914,134.477C-268.938,135.406 -268.946,136.343 -268.946,137.28L-274.553,137.28C-274.553,136.343 -274.545,135.406 -274.521,134.477C-274.385,127.428 -273.704,120.507 -272.534,113.755C-272.206,111.873 -271.846,110.007 -271.437,108.148C-270.436,103.503 -269.194,98.953 -267.72,94.499C-267.112,92.609 -266.447,90.743 -265.75,88.893C-263.98,84.215 -261.969,79.665 -259.719,75.244C-258.757,73.346 -257.748,71.479 -256.699,69.637C-254.016,64.903 -251.052,60.346 -247.832,55.988C-246.43,54.082 -244.973,52.208 -243.475,50.381C-221.4,23.452 -189.312,5.038 -152.956,0.889C-151.017,0.664 -149.071,0.488 -147.109,0.352C-143.865,0.12 -140.581,0 -137.28,0C-136.576,0 -135.871,0.007 -135.166,0.016C-133.227,0.048 -131.305,0.112 -129.391,0.224C-58.271,4.269 -1.474,62.708 -0.032,134.477C-0.008,135.406 0,136.343 0,137.28" style="fill:rgb(25,19,4);fill-rule:nonzero;"/>
            </g>
            <g transform="matrix(-2.4189,0,0,2.4189,3408.65,-2653.78)">
                <rect x="995.076" y="1216.57" width="5.607" height="77.375" style="fill:rgb(25,19,4);"/>
            </g>
            <g transform="matrix(-2.2736,0.825743,0.825743,2.2736,718.456,352.411)">
                <rect x="-18.699" y="-3.283" width="5.665" height="77.364" style="fill:rgb(25,19,4);"/>
            </g>
            <g transform="matrix(-1.85404,1.55358,1.55358,1.85404,504.781,517.35)">
                <rect x="-29.85" y="-10.852" width="5.667" height="77.367" style="fill:rgb(25,19,4);"/>
            </g>
            <g transform="matrix(-1.20963,2.09473,2.09473,1.20963,382.653,743.848)">
                <rect x="-37.714" y="-21.772" width="5.613" height="77.377" style="fill:rgb(25,19,4);"/>
            </g>
            <g transform="matrix(-0.42165,2.38187,2.38187,0.42165,361.305,982.865)">
                <rect x="-41.413" y="-34.726" width="5.658" height="77.365" style="fill:rgb(25,19,4);"/>
            </g>
            <g transform="matrix(-2.38213,0.420167,0.420167,2.38213,296.751,1132.65)">
                <rect x="-77.268" y="-6.769" width="77.369" height="5.61" style="fill:rgb(25,19,4);"/>
            </g>
            <g transform="matrix(-2.09484,1.20945,1.20945,2.09484,407.649,1386.1)">
                <rect x="-73.596" y="-19.721" width="77.377" height="5.607" style="fill:rgb(25,19,4);"/>
            </g>
            <g transform="matrix(-0.827465,2.27297,2.27297,0.827465,1273.29,485.133)">
                <rect x="-54.548" y="-38.19" width="77.369" height="5.607" style="fill:rgb(25,19,4);"/>
            </g>
            <g transform="matrix(-1.55491,1.85293,1.85293,1.55491,1401.19,620.312)">
                <rect x="-65.703" y="-30.637" width="77.371" height="5.612" style="fill:rgb(25,19,4);"/>
            </g>
            <g transform="matrix(-2.09484,1.20945,1.20945,2.09484,1476.76,768.846)">
                <rect x="-73.596" y="-19.721" width="77.377" height="5.607" style="fill:rgb(25,19,4);"/>
            </g>
            <g transform="matrix(-2.38217,0.419972,0.419972,2.38217,1512.49,918.26)">
                <rect x="-77.268" y="-6.758" width="77.369" height="5.604" style="fill:rgb(25,19,4);"/>
            </g>
            <g transform="matrix(-0.417714,2.38256,2.38256,0.417714,1577.21,1197.28)">
                <path d="M-41.353,42.639L-35.742,42.639L-35.823,-34.735L-41.427,-34.725L-41.353,42.639Z" style="fill:rgb(25,19,4);fill-rule:nonzero;"/>
            </g>
            <g transform="matrix(-1.20963,2.09473,2.09473,1.20963,1451.77,1361.1)">
                <rect x="-37.714" y="-21.772" width="5.613" height="77.377" style="fill:rgb(25,19,4);"/>
            </g>
            <g transform="matrix(-0.664524,2.32583,2.32583,0.664524,862.152,1308.94)">
                <path d="M-52.961,34.342L-47.13,34.342L-25.904,-39.949L-31.295,-41.489L-52.961,34.342Z" style="fill:rgb(25,19,4);fill-rule:nonzero;"/>
            </g>
            <g transform="matrix(-0.664524,2.32583,2.32583,0.664524,819.723,1377.48)">
                <path d="M-64.999,43.422L-59.168,43.422L-32.753,-49.029C-34.972,-48.205 -37.174,-47.318 -39.341,-46.38L-64.999,43.422Z" style="fill:rgb(25,19,4);fill-rule:nonzero;"/>
            </g>
            <g transform="matrix(-0.664524,2.32583,2.32583,0.664524,796.563,1431.47)">
                <path d="M-69.063,46.487L-63.231,46.487L-35.065,-52.094C-37.154,-51.691 -39.227,-51.233 -41.286,-50.731L-69.063,46.487Z" style="fill:rgb(25,19,4);fill-rule:nonzero;"/>
            </g>
            <g transform="matrix(-0.664524,2.32583,2.32583,0.664524,779.4,1480.95)">
                <path d="M-70.655,47.689L-64.824,47.689L-35.972,-53.296C-37.956,-53.229 -39.934,-53.103 -41.904,-52.941L-70.655,47.689Z" style="fill:rgb(25,19,4);fill-rule:nonzero;"/>
            </g>
            <g transform="matrix(-0.66759,2.32496,2.32496,0.66759,766.987,1526.69)">
                <path d="M-70.282,47.334L-64.449,47.334L-35.656,-52.941C-37.555,-53.146 -39.449,-53.314 -41.348,-53.435L-70.282,47.334Z" style="fill:rgb(25,19,4);fill-rule:nonzero;"/>
            </g>
        </g>
    </g>
</svg>
